Coordinates
version=1
nRows=10
nColumns=63
inDegrees=yes

Units are S.I. units (second, meters, Newtons, ...)
If the header above contains a line with 'inDegrees', this indicates whether rotational values are in degrees (yes) or radians (no).

endheader
time	pelvis_tilt	pelvis_list	pelvis_rotation	pelvis_tx	pelvis_ty	pelvis_tz	hip_flexion_r	hip_adduction_r	hip_rotation_r	knee_angle_r	knee_angle_r_beta	ankle_angle_r	subtalar_angle_r	mtp_angle_r	hip_flexion_l	hip_adduction_l	hip_rotation_l	knee_angle_l	knee_angle_l_beta	ankle_angle_l	subtalar_angle_l	mtp_angle_l	L5_S1_Flex_Ext	L5_S1_Lat_Bending	L5_S1_axial_rotation	L4_L5_Flex_Ext	L4_L5_Lat_Bending	L4_L5_axial_rotation	L3_L4_Flex_Ext	L3_L4_Lat_Bending	L3_L4_axial_rotation	L2_L3_Flex_Ext	L2_L3_Lat_Bending	L2_L3_axial_rotation	L1_L2_Flex_Ext	L1_L2_Lat_Bending	L1_L2_axial_rotation	L1_T12_Flex_Ext	L1_T12_Lat_Bending	L1_T12_axial_rotation	Abs_r3	Abs_r2	Abs_r1	Abs_t1	Abs_t2	neck_flexion	neck_bending	neck_rotation	arm_flex_r	arm_add_r	arm_rot_r	elbow_flex_r	pro_sup_r	wrist_flex_r	wrist_dev_r	arm_flex_l	arm_add_l	arm_rot_l	elbow_flex_l	pro_sup_l	wrist_flex_l	wrist_dev_l
      0.00000000	     -4.29815835	     -2.88634941	     93.96331820	      0.20497890	      0.76307022	      0.65490398	      0.98574699	     -4.06871474	    -10.89823771	      7.05488494	      0.12313097	     26.83153179	     10.54900383	      0.00000000	      0.65921233	      4.30012910	    -10.17067224	      5.34155628	      0.09322774	     21.59617707	     10.77977473	      0.00000000	      0.14729707	     -0.14558669	     -0.74036118	      0.27354539	     -0.19363030	     -0.78663375	      0.24199436	     -0.35397947	     -0.78663375	      0.16834583	     -0.35397947	     -0.64781603	      0.13678006	     -0.29688037	     -0.60154346	      0.08416555	     -0.22551378	     -0.55527088	      1.05212827	     -1.64690573	     -4.11766677	      0.00000000	      0.00000000	      2.57739941	      0.19059078	      3.22870674	     25.87964523	    -26.36665469	     68.83775714	     98.56223734	     81.12146997	      0.25105169	     10.65849500	     26.49820101	    -32.90236928	     67.94616430	     98.91849575	     45.84068181	      0.79574553	      8.06776472
      0.02127660	     -4.52499419	     -2.88003373	     94.64912709	      0.20462306	      0.76280657	      0.65436051	      0.28251410	     -4.29341907	    -11.93782393	      6.22254782	      0.10860395	     27.10211290	     11.48106363	      0.00000000	      0.65051039	      4.48611347	     -9.87472230	      5.57604761	      0.09732039	     21.32495014	     10.99956548	      0.00000000	      0.15391589	     -0.18880131	     -0.86699194	      0.28583720	     -0.25110574	     -0.92117894	      0.25286842	     -0.45905151	     -0.92117894	      0.17591047	     -0.45905151	     -0.75861795	      0.14292630	     -0.38500363	     -0.70443095	      0.08794754	     -0.29245323	     -0.65024395	      1.09940582	     -2.13575820	     -4.82194907	      0.00000000	      0.00000000	      2.61278940	      0.57629533	      2.91742045	     25.77190539	    -26.01053021	     68.84305237	     98.68157466	     81.15438313	      2.49520357	     12.00030485	     26.17482865	    -33.37541440	     67.76911354	     99.15786626	     48.81275855	      2.59634118	      8.63281127
      0.04255319	     -4.55371003	     -2.88075492	     94.72907024	      0.20461950	      0.76250812	      0.65397745	      0.02453389	     -4.34678513	    -11.90229551	      6.02017767	      0.10507192	     27.33810037	     11.58014807	      0.00000000	      0.60590067	      4.49960753	     -9.88006840	      5.65903144	      0.09876873	     21.16722513	     11.01256910	      0.00000000	      0.16217966	     -0.19456407	     -0.86037471	      0.30118384	     -0.25877021	     -0.91414813	      0.26644496	     -0.47306308	     -0.91414813	      0.18535513	     -0.47306308	     -0.75282787	      0.15060003	     -0.39675505	     -0.69905445	      0.09266946	     -0.30137974	     -0.64528103	      1.15843307	     -2.20094766	     -4.78514601	      0.00000000	      0.00000000	      2.64730334	      0.60626440	      2.87473678	     25.65874384	    -26.13920099	     69.20438160	     99.00445184	     81.15509024	      2.71385283	     12.07945856	     25.97742243	    -33.51685093	     67.95122405	     99.38185498	     48.94395332	      2.73218838	      8.69007153
      0.06382979	     -4.83985243	     -2.77669651	     95.34547331	      0.20432259	      0.76233403	      0.65374327	     -0.79128427	     -4.58191286	    -13.23526325	      4.97504316	      0.08683088	     27.48108612	     13.16376339	      0.00000000	      0.40728055	      4.75891327	     -9.57842374	      5.64009930	      0.09843830	     21.09886500	     11.39459238	      0.00000000	      0.14322811	     -0.23630104	     -1.02284864	      0.26598892	     -0.31428038	     -1.08677668	      0.23530946	     -0.57454234	     -1.08677668	      0.16369540	     -0.57454234	     -0.89499256	      0.13300162	     -0.48186507	     -0.83106452	      0.08184054	     -0.36603031	     -0.76713648	      1.02306405	     -2.67308459	     -5.68877729	      0.00000000	      0.00000000	      2.75436403	      0.84090081	      3.06003627	     25.87819065	    -25.75453407	     69.30961094	     99.11985289	     80.47742318	      5.49730400	     13.90386494	     24.79847611	    -33.82883138	     66.08368184	     99.76146054	     52.13668052	      4.42449599	     10.31984253
      0.08510638	     -4.90320369	     -2.78995680	     95.37685638	      0.20444169	      0.76201949	      0.65368938	     -0.93891922	     -4.65202522	    -13.19873146	      4.79642500	      0.08371341	     27.65822578	     13.29100941	      0.00000000	      0.41247525	      4.81415258	     -9.57442049	      5.72219848	      0.09987120	     21.11584965	     11.40521175	      0.00000000	      0.14661707	     -0.24396418	     -1.00581890	      0.27228256	     -0.32447236	     -1.06868258	      0.24087719	     -0.59317451	     -1.06868258	      0.16756865	     -0.59317451	     -0.88009154	      0.13614861	     -0.49749176	     -0.81722786	      0.08377699	     -0.37790051	     -0.75436417	      1.04727108	     -2.75977160	     -5.59406297	      0.00000000	      0.00000000	      2.76066647	      0.83788477	      3.05421217	     25.80988279	    -25.99339778	     69.56411931	     99.49076067	     80.49085476	      5.67442290	     13.90670826	     24.64158765	    -33.83247150	     65.96793884	     99.89251523	     52.16972974	      4.48036789	     10.36053271
      0.10638298	     -4.96810643	     -2.67489004	     95.23213377	      0.20476000	      0.76195562	      0.65365277	     -1.37980883	     -4.67296797	    -13.26961869	      4.12796848	      0.07204664	     27.52350254	     14.10184217	      0.00000000	      0.26734290	      4.86859373	     -9.84789671	      5.74707508	      0.10030538	     21.26161956	     11.53422932	      0.00000000	      0.12713603	     -0.24893245	     -0.99335392	      0.23610432	     -0.33108016	     -1.05543854	      0.20887179	     -0.60525436	     -1.05543854	      0.14530377	     -0.60525436	     -0.86918468	      0.11805852	     -0.50762305	     -0.80710006	      0.07264553	     -0.38559637	     -0.74501544	      0.90811996	     -2.81597366	     -5.52473650	      0.00000000	      0.00000000	      2.84891436	      0.74847641	      3.10546189	     25.92506927	    -26.06896137	     69.77230400	     99.74273541	     80.77531402	      6.28081760	     14.31745550	     23.75699096	    -33.71525434	     64.74563103	    100.04253115	     52.32942703	      4.47865820	     11.03437880
      0.12765957	     -4.96580195	     -2.68051031	     95.15655345	      0.20491163	      0.76169265	      0.65379919	     -1.45121238	     -4.67293684	    -13.15061657	      3.93778825	      0.06872737	     27.66454111	     14.31913340	      0.00000000	      0.26001059	      4.87052168	     -9.84296657	      5.74081278	      0.10019608	     21.44793610	     11.50703844	      0.00000000	      0.12386882	     -0.24293472	     -0.98752358	      0.23003679	     -0.32310318	     -1.04924381	      0.20350409	     -0.59067149	     -1.04924381	      0.14156968	     -0.59067149	     -0.86408313	      0.11502459	     -0.49539249	     -0.80236291	      0.07077865	     -0.37630589	     -0.74064269	      0.88478263	     -2.74812619	     -5.49230991	      0.00000000	      0.00000000	      2.88483750	      0.60383437	      3.45788824	     26.00606219	    -26.20458984	     69.97722347	     99.98482076	     80.74169988	      6.74224792	     14.50609590	     23.13097738	    -33.57059403	     63.80432566	    100.20218745	     52.35160676	      4.42606897	     11.73656478
      0.14893617	     -4.90764598	     -2.86038829	     94.99564536	      0.20524934	      0.76116695	      0.65422211	     -1.22284632	     -4.63810904	    -13.31932757	      3.91660613	      0.06835767	     27.77714102	     14.79538633	      0.00000000	      0.53638960	      4.80279745	    -10.17948795	      5.89040064	      0.10280689	     21.70924709	     11.72829777	      0.00000000	      0.14018282	     -0.23048966	     -0.99397776	      0.26033352	     -0.30655125	     -1.05610137	      0.23030636	     -0.56041257	     -1.05610137	      0.16021495	     -0.56041257	     -0.86973054	      0.13017377	     -0.47001452	     -0.80760693	      0.08010046	     -0.35702849	     -0.74548332	      1.00131188	     -2.60734518	     -5.52820613	      0.00000000	      0.00000000	      3.22234192	      0.47992276	      4.05855429	     26.24439703	    -26.18398508	     70.15841097	    100.16756955	     80.92566808	      7.46381944	     14.91373813	     22.30673908	    -33.43902510	     62.43757619	    100.56611519	     52.95400913	      4.54661131	     13.41712396
      0.17021277	     -4.91122322	     -2.85596368	     94.90051865	      0.20552061	      0.76113909	      0.65432233	     -1.28307042	     -4.62319562	    -12.70075748	      3.75673768	      0.06556744	     27.68206438	     14.54453219	      0.00000000	      0.49523881	      4.82463978	     -9.93962673	      5.77933216	      0.10086837	     21.62839956	     11.27612261	      0.00000000	      0.14206970	     -0.23221971	     -0.98559783	      0.26383763	     -0.30885221	     -1.04719770	      0.23340630	     -0.56461900	     -1.04719770	      0.16237146	     -0.56461900	     -0.86239810	      0.13192592	     -0.47354243	     -0.80079824	      0.08117862	     -0.35970833	     -0.73919837	      1.01478964	     -2.62691578	     -5.48159946	      0.00000000	      0.00000000	      3.12813253	      0.45561111	      4.06142917	     26.28259551	    -26.13842902	     70.22030954	    100.07206583	     80.20525888	      7.18480928	     14.73418452	     22.21308670	    -33.29698806	     62.32957269	    100.48063122	     52.85842902	      4.62958784	     13.33770839
      0.19148936	     -4.91030324	     -2.96860510	     94.52395200	      0.20627363	      0.76091504	      0.65496932	     -0.98731016	     -4.66150774	    -12.61595736	      3.88123496	      0.06774033	     27.81517287	     15.24282881	      0.00000000	      0.75046617	      4.76211708	    -11.05579706	      5.98984715	      0.10454255	     21.82915927	     12.09047184	      0.00000000	      0.15175846	     -0.23910815	     -0.90823280	      0.28183064	     -0.31801384	     -0.96499734	      0.24932398	     -0.58136756	     -0.96499734	      0.17344475	     -0.58136756	     -0.79470370	      0.14092291	     -0.48758934	     -0.73793915	      0.08671479	     -0.37037853	     -0.68117460	      1.08399553	     -2.70483924	     -5.05131834	      0.00000000	      0.00000000	      3.27369119	      0.57216241	      3.74647265	     26.25613359	    -26.10996924	     69.97998143	     99.97103280	     79.52361156	      7.00322719	     14.74980672	     22.19697886	    -33.08545392	     61.89540148	    100.41933542	     53.69397256	      5.72991065	     14.55459830
